name C:/MyDriveSym/Projects/mobilecap/Data\Session20210825_0002\mocap\ForceDataProcessed\walkingTS2_forces.mot
datacolumns 19
datarows 14
range 0.00000000 0.00650000
endheader 
time	R_ground_force_vx	R_ground_force_vy	R_ground_force_vz	R_ground_force_px	R_ground_force_py	R_ground_force_pz	R_ground_torque_x	R_ground_torque_y	R_ground_torque_z	L_ground_force_vx	L_ground_force_vy	L_ground_force_vz	L_ground_force_px	L_ground_force_py	L_ground_force_pz	L_ground_torque_x	L_ground_torque_y	L_ground_torque_z	
          0.00000000	        -39.77723700	        279.52589200	          8.70358800	          0.15388000	          0.00600000	         -0.14402600	          0.00000000	          0.93277000	          0.00000000	          0.00000000	          0.00000000	          0.00000000	          0.69984600	          0.00000000	         -0.25333400	          0.00000000	          0.00000000	          0.00000000	
          0.00050000	        -40.22638300	        280.87475500	          8.62675200	          0.15388000	          0.00600000	         -0.14402600	          0.00000000	          0.92866000	          0.00000000	          0.00000000	          0.00000000	          0.00000000	          0.69984600	          0.00000000	         -0.25333400	          0.00000000	          0.00000000	          0.00000000	
          0.00100000	        -40.67761300	        282.23315100	          8.54862400	          0.15388000	          0.00600000	         -0.14402600	          0.00000000	          0.92454400	          0.00000000	          0.00000000	          0.00000000	          0.00000000	          0.69984600	          0.00000000	         -0.25333400	          0.00000000	          0.00000000	          0.00000000	
          0.00150000	        -41.13089400	        283.60103600	          8.46919300	          0.15388000	          0.00600000	         -0.14402600	          0.00000000	          0.92042200	          0.00000000	          0.00000000	          0.00000000	          0.00000000	          0.69984600	          0.00000000	         -0.25333400	          0.00000000	          0.00000000	          0.00000000	
          0.00200000	        -41.58619100	        284.97836400	          8.38844800	          0.15413900	          0.00600000	         -0.14401900	          0.00000000	          0.91629600	          0.00000000	          0.00000000	          0.00000000	          0.00000000	          0.69984600	          0.00000000	         -0.25333400	          0.00000000	          0.00000000	          0.00000000	
          0.00250000	        -42.04347200	        286.36508400	          8.30637900	          0.15439900	          0.00600000	         -0.14401200	          0.00000000	          0.91216600	          0.00000000	          0.00000000	          0.00000000	          0.00000000	          0.69984600	          0.00000000	         -0.25333400	          0.00000000	          0.00000000	          0.00000000	
          0.00300000	        -42.50269900	        287.76114600	          8.22297600	          0.15465900	          0.00600000	         -0.14400500	          0.00000000	          0.90803200	          0.00000000	          0.00000000	          0.00000000	          0.00000000	          0.69984600	          0.00000000	         -0.25333400	          0.00000000	          0.00000000	          0.00000000	
          0.00350000	        -42.96383800	        289.16649700	          8.13823000	          0.15492000	          0.00600000	         -0.14399700	          0.00000000	          0.90389600	          0.00000000	          0.00000000	          0.00000000	          0.00000000	          0.69984600	          0.00000000	         -0.25333400	          0.00000000	          0.00000000	          0.00000000	
          0.00400000	        -43.42685300	        290.58108200	          8.05212900	          0.15518000	          0.00600000	         -0.14399000	          0.00000000	          0.89975700	          0.00000000	          0.00000000	          0.00000000	          0.00000000	          0.69984600	          0.00000000	         -0.25333400	          0.00000000	          0.00000000	          0.00000000	
          0.00450000	        -43.89170600	        292.00484200	          7.96466300	          0.15544100	          0.00600000	         -0.14398200	          0.00000000	          0.89561800	          0.00000000	          0.00000000	          0.00000000	          0.00000000	          0.69984600	          0.00000000	         -0.25333400	          0.00000000	          0.00000000	          0.00000000	
          0.00500000	        -44.35836200	        293.43771700	          7.87582400	          0.15570200	          0.00600000	         -0.14397400	          0.00000000	          0.89147800	          0.00000000	          0.00000000	          0.00000000	          0.00000000	          0.69984600	          0.00000000	         -0.25333400	          0.00000000	          0.00000000	          0.00000000	
          0.00550000	        -44.82678300	        294.87964800	          7.78560200	          0.15596300	          0.00600000	         -0.14396600	          0.00000000	          0.88733700	          0.00000000	          0.00000000	          0.00000000	          0.00000000	          0.69984600	          0.00000000	         -0.25333400	          0.00000000	          0.00000000	          0.00000000	
          0.00600000	        -45.29693100	        296.33056800	          7.69398700	          0.15622500	          0.00600000	         -0.14395800	          0.00000000	          0.88319800	          0.00000000	          0.00000000	          0.00000000	          0.00000000	          0.69984600	          0.00000000	         -0.25333400	          0.00000000	          0.00000000	          0.00000000	
          0.00650000	        -45.76876900	        297.79041300	          7.60097000	          0.15648600	          0.00600000	         -0.14394900	          0.00000000	          0.87905900	          0.00000000	          0.00000000	          0.00000000	          0.00000000	          0.69984600	          0.00000000	         -0.25333400	          0.00000000	          0.00000000	          0.00000000	
